<svg id="Capa_1" enable-background="new 0 0 512 512" height="512" viewBox="0 0 512 512" width="512" xmlns="http://www.w3.org/2000/svg" xmlns:xlink="http://www.w3.org/1999/xlink"><linearGradient id="SVGID_1_" gradientUnits="userSpaceOnUse" x1="8.753" x2="524.203" y1="401.161" y2="103.566"><stop offset="0" stop-color="#dcfdee" stop-opacity="0"/><stop offset=".6288" stop-color="#d2f3e4"/></linearGradient><linearGradient id="SVGID_2_" gradientUnits="userSpaceOnUse" x1="256" x2="256" y1="90.268" y2="386.484"><stop offset=".0028" stop-color="#ff7eb8" stop-opacity="0"/><stop offset="1" stop-color="#ff7eb8" stop-opacity=".6"/></linearGradient><g><g><path d="m418.32 2.5c-55.666-9.521-178.298 12.183-200.004 105.017-14.432 61.722-14.007 112.075-50.427 113.02-21.67.562-32.97-44.31-62.889-48.001-39.047-4.817-66.145 27.695-83.057 57.138-37.205 64.772-25.571 174.918 23.354 228.632 118.488 130.086 259.197-5.952 319.358-112.309 38.585-68.213 125.637-123.352 143.767-200.248 15.177-64.376-18.503-131.003-90.102-143.249z" fill="url(#SVGID_1_)"/></g><g><g><g><g><g><path d="m195.475 453.268h121.05c6.194 0 11.216-5.022 11.216-11.216v-.2c0-4.666-2.933-8.733-7.254-10.493-8.719-3.551-15.419-11.247-17.411-20.928l-6.611-32.121h-80.929l-6.611 32.121c-1.992 9.681-8.692 17.377-17.411 20.928-4.321 1.76-7.254 5.827-7.254 10.493v.2c-.001 6.195 5.021 11.216 11.215 11.216z" fill="#b7c5ff"/><path d="m301.86 404.488h-91.72l5.4-26.18h80.92z" fill="#9fb0fe"/><path d="m450.429 386.484h-388.858c-7.139 0-12.926-5.787-12.926-12.926v-270.364c0-7.139 5.787-12.926 12.926-12.926h388.859c7.139 0 12.926 5.787 12.926 12.926v270.364c-.001 7.139-5.788 12.926-12.927 12.926z" fill="#fff"/><g><g><path d="m172.27 319.69c-26.163.726-41.57-11.864-50.267-23.806-18.965-26.041-19.602-67.673-1.449-94.777 18.034-26.926 49.619-46.185 88.937-54.23 36.739-7.517 77.759-4.723 112.543 7.662 38.427 13.682 70.748 37.633 93.468 69.264 21.875 30.453 33.437 65.738 33.437 102.042 0 3.859 3.227 6.988 7.208 6.988s7.208-3.129 7.208-6.988c0-39.174-12.457-77.221-36.023-110.029-24.419-33.996-59.113-59.721-100.328-74.396-37.258-13.266-81.176-16.262-120.49-8.218-43.094 8.817-77.917 30.229-98.051 60.293-10.229 15.273-15.717 34.947-15.454 55.4.265 20.619 6.379 40.17 17.217 55.051 8.803 12.087 27.258 29.753 59.916 29.751 7.326 0 15.374-.89 24.18-2.931 19.482-4.516 38.394-18.16 47.058-33.951 5.955-10.854 6.958-22.145 2.898-32.652-6.008-15.553-24.656-24.803-43.357-21.518-6.066 1.065-12.313 3.656-17.421 8.066v26.6h3.186c0-5.401 1.638-18.249 16.805-20.913 1.739-.305 3.44-.449 5.094-.449 10.821 0 19.5 6.144 22.194 13.117 2.604 6.741 1.889 13.868-2.126 21.185-6.731 12.269-22.227 23.339-37.683 26.921-1.454.337-2.88.638-4.284.904z" fill="#ffc4df"/></g><path d="m239.515 117.894c-3.981 0-7.208 3.129-7.208 6.988v103.16h-139.307c-3.981 0-7.208 3.129-7.208 6.988 0 3.86 3.227 6.988 7.208 6.988h79.709v88.074c0 3.981 3.129 7.208 6.988 7.208s6.988-3.227 6.988-7.208v-88.074h45.621v95.282c0 3.859 3.227 6.988 7.208 6.988s7.208-3.129 7.208-6.988v-212.418c.001-3.859-3.226-6.988-7.207-6.988z" fill="#ff7eb8"/></g><path d="m93 90.268h-31.429c-7.139 0-12.926 5.787-12.926 12.926v270.364c0 7.139 5.787 12.926 12.926 12.926h31.429z" fill="#6583fe"/><path d="m463.355 128.768v-25.574c0-7.139-5.787-12.926-12.926-12.926h-388.858c-7.139 0-12.926 5.787-12.926 12.926v25.574z" fill="#2d58e0"/><path d="m48.645 333.697v39.862c0 7.139 5.787 12.926 12.926 12.926h388.859c7.139 0 12.926-5.787 12.926-12.926v-39.862z" fill="#d2deff"/><path d="m185.735 436.359h140.53c-1.273-2.212-3.294-3.988-5.778-5-2.977-1.212-5.709-2.917-8.108-5.01-3.696-.018-6.994.01-6.994.01h-98.77s-3.298-.028-6.994-.01c-2.399 2.092-5.131 3.798-8.108 5.01-2.484 1.012-4.505 2.789-5.778 5z" fill="#9fb0fe"/></g></g></g><path d="m137.721 448.359c-2.762 0-5-2.239-5-5 0-3.309-2.692-6-6.001-6-2.762 0-5-2.239-5-5s2.238-5 5-5c3.309 0 6.001-2.691 6.001-6 0-2.761 2.238-5 5-5s5 2.239 5 5c0 3.309 2.691 6 5.999 6 2.762 0 5 2.239 5 5s-2.238 5-5 5c-3.308 0-5.999 2.691-5.999 6 0 2.762-2.239 5-5 5z" fill="#01eca5"/><g fill="#6583fe"><path d="m81.822 469.269c-2.762 0-5-2.239-5-5 0-3.309-2.691-6-6-6-2.762 0-5-2.239-5-5s2.238-5 5-5c3.309 0 6-2.691 6-6 0-2.761 2.238-5 5-5s5 2.239 5 5c0 3.309 2.691 6 6 6 2.762 0 5 2.239 5 5s-2.238 5-5 5c-3.309 0-6 2.691-6 6 0 2.761-2.238 5-5 5z"/><path d="m198.667 64.732c-1.279 0-2.56-.488-3.535-1.464-1.953-1.953-1.953-5.119 0-7.071l10-10c1.951-1.952 5.119-1.952 7.07 0 1.953 1.953 1.953 5.119 0 7.071l-10 10c-.975.976-2.256 1.464-3.535 1.464z"/><path d="m382.086 448.555c-1.279 0-2.559-.488-3.535-1.464-1.953-1.953-1.953-5.119 0-7.071l10-10c1.951-1.952 5.119-1.952 7.07 0 1.953 1.953 1.953 5.119 0 7.071l-10 10c-.975.976-2.256 1.464-3.535 1.464z"/></g></g><g><g><g><path d="m387.086 202.493h-53.285c-2.761 0-5-2.239-5-5v-36.573c0-2.761 2.239-5 5-5h53.285c2.762 0 5 2.239 5 5v36.573c0 2.761-2.239 5-5 5z" fill="#9fb0fe"/><path d="m392.086 172.993h-63.285v-12.073c0-2.761 2.239-5 5-5h53.285c2.762 0 5 2.239 5 5z" fill="#4369fd"/></g><g><path d="m387.086 294.066h-53.285c-2.761 0-5-2.239-5-5v-81.573c0-2.761 2.239-5 5-5h53.285c2.762 0 5 2.239 5 5v81.573c0 2.762-2.239 5-5 5z" fill="#9fb0fe"/><path d="m392.086 219.566h-63.285v-12.073c0-2.761 2.239-5 5-5h53.285c2.762 0 5 2.239 5 5z" fill="#4369fd"/></g></g><path d="m267.087 246.285 5.233 15.699c.804 2.411 3.864 3.133 5.661 1.336l10.466-10.466c1.797-1.797 1.075-4.857-1.336-5.661l-15.699-5.233c-2.673-.89-5.216 1.653-4.325 4.325z" fill="#2d58e0"/></g><g><g><path d="m136.467 218.484c-2.761 0-5-2.239-5-5v-.115c0-2.761 2.239-5 5-5s5 2.239 5 5v.115c0 2.761-2.239 5-5 5z" fill="#02ffb3"/></g><g><path d="m151.067 218.484c-2.761 0-5-2.239-5-5v-.115c0-2.761 2.239-5 5-5s5 2.239 5 5v.115c0 2.761-2.239 5-5 5z" fill="#02ffb3"/></g></g><g><g><path d="m257.001 162.156c0-2.761 2.239-5 5-5h.115c2.761 0 5 2.239 5 5s-2.239 5-5 5h-.115c-2.761 0-5-2.239-5-5z" fill="#02ffb3"/></g><g><path d="m257.001 176.756c0-2.761 2.239-5 5-5h.115c2.761 0 5 2.239 5 5s-2.239 5-5 5h-.115c-2.761 0-5-2.239-5-5z" fill="#02ffb3"/></g></g><path d="m267.116 65.732c-2.762 0-5-2.239-5-5 0-3.309-2.691-6-6-6-2.762 0-5-2.239-5-5s2.238-5 5-5c3.309 0 6-2.692 6-6 0-2.761 2.238-5 5-5s5 2.239 5 5c0 3.309 2.691 6 6 6 2.762 0 5 2.239 5 5s-2.238 5-5 5c-3.309 0-6 2.691-6 6 0 2.761-2.238 5-5 5z" fill="#ff7eb8"/></g><path d="m450.429 386.484h-388.858c-7.139 0-12.926-5.787-12.926-12.926v-270.364c0-7.139 5.787-12.926 12.926-12.926h388.859c7.139 0 12.926 5.787 12.926 12.926v270.364c-.001 7.139-5.788 12.926-12.927 12.926z" fill="url(#SVGID_2_)"/></g></svg>